/* XPM */
static char *_9df012ba5e84e3b8fe0ec14283b9ae0okRyAT9b436wImjI[] = {
/* columns rows colors chars-per-pixel */
"64 64 92 1 ",
"  c None",
". c #2B5895",
"X c #2A5996",
"o c #2A5997",
"O c #265E9B",
"+ c #265F9B",
"@ c #295A98",
"# c #295C99",
"$ c #285D9A",
"% c #295D9A",
"& c #21629F",
"* c #22629E",
"= c #22629F",
"- c #24609C",
"; c #24619D",
": c #1B67A3",
"> c #1F64A0",
", c #1E65A1",
"< c #1D66A2",
"1 c #1B68A4",
"2 c #1A69A4",
"3 c #1A69A5",
"4 c #196AA6",
"5 c #186BA7",
"6 c #186CA7",
"7 c #186CA8",
"8 c #186DA8",
"9 c #186EA9",
"0 c #186EAA",
"q c #1770AB",
"w c #1771AC",
"e c #1771AD",
"r c #1772AD",
"t c #1772AE",
"y c #1773AF",
"u c #1775B0",
"i c #1875B0",
"p c #1876B1",
"a c #1876B2",
"s c #1877B2",
"d c #177CB7",
"f c #177DB7",
"g c #1878B3",
"h c #1879B4",
"j c #1979B4",
"k c #197AB5",
"l c #187BB6",
"z c #197BB6",
"x c #137FBA",
"c c #157EB9",
"v c #2064A0",
"b c #0F81BC",
"n c #0D83BD",
"m c #0F82BC",
"M c #0D83BE",
"N c #0B84BF",
"B c #1180BB",
"V c #1081BC",
"C c #0686C1",
"Z c #0786C1",
"A c #0686C2",
"S c #0687C2",
"D c #0985C0",
"F c #0A85C0",
"G c #0688C3",
"H c #0689C4",
"J c #068AC4",
"K c #068AC5",
"L c #068BC5",
"P c #068BC6",
"I c #068BC7",
"U c #068DC8",
"Y c #068EC9",
"T c #058FCA",
"R c #0590CB",
"E c #0393CF",
"W c #0590CC",
"Q c #0591CC",
"! c #0492CD",
"~ c #0493CE",
"^ c #0493CF",
"/ c #0394D0",
"( c #0295D1",
") c #0296D2",
"_ c #0198D3",
"` c #0198D4",
"' c #0199D5",
"] c #009AD6",
"[ c #009CD7",
"{ c #009CD8",
"} c #009DD9",
"| c #009EDA",
/* pixels */
"                                                                ",
"                                                                ",
"                                                                ",
"                                                                ",
"                       .                                        ",
"                      #oo                                       ",
"                      #o#                                       ",
"                     %####                                      ",
"                    %%$$%%                                      ",
"                    +++++++                                     ",
"                   +++++++;                                     ",
"                   ;*;**;*;                                     ",
"                  *vv;v**v*                                     ",
"                 vvvvvv*vv                                      ",
"                 <<>v<<<v<   <<<<<<*<<<*<<                      ",
"                <<<<<<<<<   <<<<<<<<<<<<<<                      ",
"                ::<::<::    <:<::<::2<:::<4                     ",
"               444444442   44444444424244414                    ",
"              444444444    44444444444444444                    ",
"              404445554   6444554456446644549                   ",
"             660969606   96997976660696906060                   ",
"             000999900   099999000606q99060000                  ",
"            qq0qqqqqq   0qqqqqqqqqqqqqqqqqqq00                  ",
"           tqttqtqqt    tqtqtqqqqqtqqyqqtqqqttt                 ",
"           ttttttttt   tttttuqueyyyy  ytttttttuq                ",
"          ituiuttyy   iiittiuiueyyy    yuiuttuuu                ",
"          uuiiiiuuu   iiuuuuiiiiyy      iiiiuuuui               ",
"         iiiigiiii   iiiiiiiiigiss      iigiiiiii               ",
"         liigiiig    gigliiigigii   gi   igigigigi              ",
"        lglllllgg   lglgllllllill   gl    lglglglgl             ",
"       lilligljj   lgglgilliglil   lgll   jjjjjjjlg             ",
"       lzzlllllk   zllllzzllllz   llllll   lllllllll            ",
"      fddddffzc   fddddfdddffff   ffzclz   zffcldddd            ",
"      cxcccccc    cccccccccccc   cccccccc   ccccccccc           ",
"     xxxxxxxxx   xxxxxxxxxxxxx   cBcxxxxB    cxxxxxxB           ",
"    BBxbVxBBB   BBbxVxBBVxBBB   BBBBxVxVBB   VVxbxVxBV          ",
"    bbbbbbbbb   bVVVVVVVbVVV   Bbbbbbbbbbbb   bbbbbbbbb         ",
"   bbNNbbNFbNb                 NNbNbNbbFNbN   NbNbNbNbb         ",
"   FNNNNFFFbFN                 NDbNNNDFFNNNN   NFNNNFNNN        ",
"  FFFFZFFFFZFFF                 FZZFFFFFZFFF   FFFFZFFFZ        ",
"   ZZZZZFZZZZHAAZZZZZAAAZZZZG   ZZZZZZZZZZAAG   AZZZZZZFF       ",
"   HHHKAJFHHZHAKGGGHGGGGGFGGGG   HHHGGHHHHAAH    HHHHGGJHH      ",
"    KKKAJJJIAKKAHHHHKGGGJJIPHH    HHJFJJKKKKHH   HHHHHJJHH      ",
"    KKKKJIJPKKKKHHHIKKKLJIJPHHI   HHIJIIKKKKIHH   HIHHPPHHI     ",
"     HIIIIIPIIIIIHTHLUKUPIIIIIII   HTIPPKIUIIII   HTPIIPIII     ",
"     TTTIPRPIRIITTIIUUUURIIIIYII   TIIRIUUUUUUIT   TPPRPIITI    ",
"      TIPRPRRRPITTTTUUUUIRRIQIYYT   IIRIUUTUUTTT   TPRRPRRTI    ",
"       TRRRRIRTTTTRUEUUEQIRTQQTTT   QRRRUTTTTTTTT   RYRRYRRRR   ",
"       QQQQQQQQTQQQQQTQQQTT/QQQTQQ   QTQQQTQQQRQR    QQRQTQTQQ  ",
"        QQQ/QQQ/^QQQQ/QQ/QQQQQ/QQQ   QQQQQQQQQQQQQ   QQEEQEQQE  ",
"                                     ///(Q///Q///^              ",
"                                    /////(///(///               ",
"                                    //`/(((((((/(               ",
"      //))))))))`//`/`//))/`/`/`))))/`/`()))((]/                ",
"     (]`])])))])````]]``]])]]```])])````])])](]_                ",
"     ]]`){)]{{){{``````]]){)]```]]]]````]]]]](]                 ",
"    ]]]]{{{]]]]]]]]]]]]]]]]]]]]]]]]]]]]]]]]]]]                  ",
"   {{{{{{{{{{{{{]||]]|]||]|]|]|]{]{]{{{{|]]||]                  ",
"   ||{||{{|{{|{{|]|||||]|]|||]||||{||{|||{|||                   ",
"  |||||||||||||||||||||||||||||||||||||||||||                   ",
"                                                                ",
"                                                                ",
"                                                                ",
"                                                                "
};
