/* XPM */
static char *d1c46f865eb64862fce46164d4e7e510IbN2krcoT5AFekZj[] = {
/* columns rows colors chars-per-pixel */
"32 32 51 1 ",
"  c None",
". c #2A5996",
"X c #275E9B",
"o c #295B99",
"O c #21639F",
"+ c #24609D",
"@ c #1D66A2",
"# c #1E66A2",
"$ c #1A68A4",
"% c #1B68A4",
"& c #196BA7",
"* c #186DA9",
"= c #186EA9",
"- c #1770AC",
"; c #1772AE",
": c #1773AE",
"> c #1875B0",
", c #1875B1",
"< c #1876B1",
"1 c #1877B3",
"2 c #1878B3",
"3 c #197AB5",
"4 c #197BB5",
"5 c #127FBA",
"6 c #167DB8",
"7 c #0E82BD",
"8 c #0A84BF",
"9 c #0A85BF",
"0 c #1180BB",
"q c #1280BA",
"w c #0687C2",
"e c #0787C2",
"r c #0A85C0",
"t c #0688C2",
"y c #0688C3",
"u c #068AC5",
"i c #068CC7",
"p c #068EC9",
"a c #058FCA",
"s c #068ECA",
"d c #068FCA",
"f c #0393CF",
"g c #0491CC",
"h c #0394CF",
"j c #0296D2",
"k c #0297D2",
"l c #0198D4",
"z c #0199D4",
"x c #0199D5",
"c c #009BD7",
"v c #009EDA",
/* pixels */
"                                ",
"                                ",
"           .                    ",
"           oo                   ",
"          XXX                   ",
"         +++++                  ",
"         OOOO                   ",
"        @@@@@ @@@@@@@           ",
"        &@$$  &$%%%%%%          ",
"       &&&&  &&&&&&&&&          ",
"      *&***  **&*******         ",
"      ::--  ---:-------         ",
"     :::-: ::::::- :::::        ",
"     ,,,,  ,,,,,,   ,,,,,       ",
"    22223 222222  3  2222       ",
"    3333  333333 434 33333      ",
"   6666  666666  666  6666      ",
"  q5555 q555555 qq55q 5555q     ",
"  77777         77777  7777     ",
" r9999r         9999rr  9999    ",
" eeeryeeeeeeryy eeeeeee eeyry   ",
"  uuuuuuuuuuuuu  uuuuuu  uuuu   ",
"   iiiiiiiauiiii iiuauii aiiii  ",
"   addaaaaaadaaaa aaaaaa  ddda  ",
"    ggggggggggggg  gggggg  gggg ",
"                  hhhffff       ",
"   kkkkkkkkkkkkkkkkkkkkk        ",
"  cklkkclkkcckllllllllkc        ",
"  ccccccccccccccccccccc         ",
" vvvvvvvvvvvvvvvvvvvvv          ",
"                                ",
"                                "
};
