/* XPM */
static char *_5ea0a4739a749cccce9941f232d0b1394QLotKmMeR8IJYa[] = {
/* columns rows colors chars-per-pixel */
"16 16 37 1 ",
"  c None",
". c #255F9C",
"X c #1F64A0",
"o c #1E65A1",
"O c #1D66A2",
"+ c #1A69A5",
"@ c #1A6AA5",
"# c #176FAA",
"$ c #176FAB",
"% c #1773AF",
"& c #1774AF",
"* c #1774B0",
"= c #1775B0",
"- c #1879B4",
"; c #187AB5",
": c #137FB9",
"> c #137FBA",
", c #147EB9",
"< c #157EB9",
"1 c #2064A0",
"2 c #0C83BE",
"3 c #0B84BE",
"4 c #0B84BF",
"5 c #0688C3",
"6 c #0788C3",
"7 c #0689C3",
"8 c #0689C4",
"9 c #068DC8",
"0 c #068DC9",
"q c #068EC9",
"w c #0491CC",
"e c #0591CC",
"r c #0492CE",
"t c #0197D3",
"y c #0297D3",
"u c #0198D4",
"i c #009CD8",
/* pixels */
"                ",
"                ",
"     ..         ",
"    XX1 XO      ",
"    @@ @++@     ",
"   $$ $$$$$%    ",
"  =&&=%&% ==    ",
"  -- --- ----   ",
" ,,,,,,,:, ,,   ",
" 226    223 23  ",
" 6888868668 88  ",
" 9999999 999 99 ",
"  eeerrr ere  e ",
" uuuuuyuuuuy    ",
" iiiiiiiiii     ",
"                "
};
